<svg xmlns="http://www.w3.org/2000/svg" viewBox="0 0 24 24" fill="currentColor">
  <path d="M3 9a2 2 0 0 1 2-2h2.586l4.707-4.707A1 1 0 0 1 14 3v18a1 1 0 0 1-1.707.707L7.586 17H5a2 2 0 0 1-2-2V9zm16.071-4.071a1 1 0 0 1 1.414 1.414A9 9 0 0 1 21 12a9 9 0 0 1-.515 3.657 1 1 0 0 1-1.886-.666A7 7 0 0 0 19 12a7 7 0 0 0-.4-2.329 1 1 0 0 1 .4-1.118zm-2.828 2.828a1 1 0 1 1 1.414 1.414A5 5 0 0 1 18 12a5 5 0 0 1-.343 1.828 1 1 0 1 1-1.886-.666A3 3 0 0 0 16 12c0-.49.117-.95.328-1.366a1 1 0 0 1-.085-1.777z"/>
</svg>
